<svg xmlns="http://www.w3.org/2000/svg" version="1.1" xmlns:xlink="http://www.w3.org/1999/xlink" xmlns:svgjs="http://svgjs.dev/svgjs" width="1500" height="1500" viewBox="0 0 1500 1500"><rect width="1500" height="1500" fill="#ffffff"></rect><g transform="matrix(0.6666666666666666,0,0,0.6666666666666666,249.39393939393938,438.5856950067477)"><svg viewBox="0 0 396 247" data-background-color="#ffffff" preserveAspectRatio="xMidYMid meet" height="935" width="1500" xmlns="http://www.w3.org/2000/svg" xmlns:xlink="http://www.w3.org/1999/xlink"><g id="tight-bounds" transform="matrix(1,0,0,1,0.2400000000000091,-0.09999999999999432)"><svg viewBox="0 0 395.52 247.2" height="247.2" width="395.52"><g><svg></svg></g><g><svg viewBox="0 0 395.52 247.2" height="247.2" width="395.52"><g transform="matrix(1,0,0,1,75.54432000000001,86.13968670765584)"><svg viewBox="0 0 244.43135999999996 74.9206265846883" height="74.9206265846883" width="244.43135999999996"><g><svg viewBox="0 0 244.43135999999996 74.9206265846883" height="74.9206265846883" width="244.43135999999996"><g><svg viewBox="0 0 244.43136 74.92062658468832" height="74.9206265846883" width="244.43135999999996"><g><svg viewBox="0 0 244.43136 74.92062658468832" height="74.92062658468832" width="244.43136"><g id="textblocktransform"><svg viewBox="0 0 244.43136 74.92062658468832" height="74.92062658468832" width="244.43136" id="textblock"><g><svg viewBox="0 0 244.43136 45.47061049673859" height="45.47061049673859" width="244.43136"><g transform="matrix(1,0,0,1,0,0)"><svg width="244.43136" viewBox="0 -35.45 194.62 36.21" height="45.47061049673859" data-palette-color="#2a2c35"><path d="M19.7-17.5L30.44 0 21.95 0 15.21-11.3 8.45 0 0 0 10.74-17.5 0-35.01 8.45-35.01 15.21-23.71 21.95-35.01 30.44-35.01 19.7-17.5ZM66.94-17.36L66.94-17.36Q66.94-14.87 66.29-12.56 65.65-10.25 64.48-8.24 63.3-6.23 61.64-4.57 59.98-2.91 57.98-1.72 55.98-0.54 53.66 0.11 51.34 0.76 48.85 0.76L48.85 0.76Q46.36 0.76 44.05 0.11 41.75-0.54 39.73-1.72 37.72-2.91 36.06-4.57 34.4-6.23 33.21-8.24 32.03-10.25 31.38-12.56 30.73-14.87 30.73-17.36L30.73-17.36Q30.73-19.85 31.38-22.17 32.03-24.49 33.21-26.49 34.4-28.49 36.06-30.15 37.72-31.81 39.73-32.98 41.75-34.16 44.05-34.8 46.36-35.45 48.85-35.45L48.85-35.45Q51.34-35.45 53.66-34.8 55.98-34.16 57.98-32.98 59.98-31.81 61.64-30.15 63.3-28.49 64.48-26.49 65.65-24.49 66.29-22.17 66.94-19.85 66.94-17.36ZM59.98-17.36L59.98-17.36Q59.98-19.65 59.1-21.69 58.23-23.73 56.72-25.23 55.22-26.73 53.18-27.61 51.14-28.49 48.85-28.49L48.85-28.49Q46.53-28.49 44.5-27.61 42.48-26.73 40.96-25.23 39.45-23.73 38.57-21.69 37.69-19.65 37.69-17.36L37.69-17.36Q37.69-15.06 38.57-13.05 39.45-11.04 40.96-9.52 42.48-8.01 44.5-7.13 46.53-6.25 48.85-6.25L48.85-6.25Q51.14-6.25 53.18-7.13 55.22-8.01 56.72-9.52 58.23-11.04 59.1-13.05 59.98-15.06 59.98-17.36ZM99.53-35.01L99.53 0 92.04 0 78.54-23.05 78.54 0 71.53 0 71.53-35.01 79.02-35.01 92.52-11.94 92.52-35.01 99.53-35.01ZM134.03-35.01L134.03 0 126.53 0 113.03-23.05 113.03 0 106.02 0 106.02-35.01 113.52-35.01 127.02-11.94 127.02-35.01 134.03-35.01ZM164.52-7.01L164.52 0 140.52 0 140.52-35.01 164.52-35.01 164.52-28 147.52-28 147.52-21 159.02-21 159.02-13.99 147.52-13.99 147.52-7.01 164.52-7.01ZM184.12-28L184.12 0 177.14 0 177.14-28 166.61-28 166.61-35.01 194.62-35.01 194.62-28 184.12-28Z" opacity="1" transform="matrix(1,0,0,1,0,0)" fill="#000000" class="wordmark-text-0" data-fill-palette-color="primary" id="text-0"></path></svg></g></svg></g><g transform="matrix(1,0,0,1,102.78338688000002,56.205130340366644)"><svg viewBox="0 0 141.64797312 18.715496244321677" height="18.715496244321677" width="141.64797312"><g transform="matrix(1,0,0,1,0,0)"><svg width="141.64797312" viewBox="-0.2 -37.7 367.4 48.550000000000004" height="18.715496244321677" data-palette-color="#2a2c35"><path d="M20.3-26.45L14.2-14.15 21.35 0 14.85 0 10.45-10.65 6.15 0-0.2 0 6.95-13.95 0.5-26.45 6.9-26.45 10.55-17.25 14.1-26.45 20.3-26.45ZM33.45-27.15Q38.45-27.15 41.22-23.65 44-20.15 44-13.25L44-13.25Q44-6.65 41.2-2.95 38.4 0.75 33.45 0.75L33.45 0.75Q28.5 0.75 25.7-2.88 22.9-6.5 22.9-13.25L22.9-13.25Q22.9-19.95 25.7-23.55 28.5-27.15 33.45-27.15L33.45-27.15ZM33.45-22.5Q31.3-22.5 30.3-20.38 29.3-18.25 29.3-13.25L29.3-13.25Q29.3-8.2 30.3-6.08 31.3-3.95 33.45-3.95L33.45-3.95Q35.6-3.95 36.6-6.08 37.6-8.2 37.6-13.25L37.6-13.25Q37.6-18.3 36.6-20.4 35.6-22.5 33.45-22.5L33.45-22.5ZM60.9-27.15Q63.75-27.15 65.4-25.1 67.05-23.05 67.05-19.6L67.05-19.6 67.05 0 60.9 0 60.9-18.9Q60.9-20.8 60.37-21.63 59.85-22.45 58.85-22.45L58.85-22.45Q56.75-22.45 54.7-18.5L54.7-18.5 54.7 0 48.55 0 48.55-26.45 53.9-26.45 54.35-23Q55.7-25.1 57.22-26.13 58.75-27.15 60.9-27.15L60.9-27.15ZM84.94-27.15Q87.79-27.15 89.44-25.1 91.09-23.05 91.09-19.6L91.09-19.6 91.09 0 84.94 0 84.94-18.9Q84.94-20.8 84.42-21.63 83.89-22.45 82.89-22.45L82.89-22.45Q80.79-22.45 78.74-18.5L78.74-18.5 78.74 0 72.59 0 72.59-26.45 77.94-26.45 78.39-23Q79.74-25.1 81.27-26.13 82.79-27.15 84.94-27.15L84.94-27.15ZM115.49-13.85Q115.49-13.4 115.34-11.3L115.34-11.3 101.69-11.3Q101.89-7.2 103.12-5.58 104.34-3.95 106.59-3.95L106.59-3.95Q108.14-3.95 109.39-4.48 110.64-5 112.09-6.15L112.09-6.15 114.64-2.65Q111.14 0.75 106.24 0.75L106.24 0.75Q101.04 0.75 98.27-2.85 95.49-6.45 95.49-13L95.49-13Q95.49-19.55 98.14-23.35 100.79-27.15 105.64-27.15L105.64-27.15Q110.29-27.15 112.89-23.78 115.49-20.4 115.49-13.85L115.49-13.85ZM109.49-15.3L109.49-15.65Q109.49-19.4 108.59-21.13 107.69-22.85 105.69-22.85L105.69-22.85Q103.84-22.85 102.87-21.18 101.89-19.5 101.69-15.3L101.69-15.3 109.49-15.3ZM130.94-5L133.09-1.2Q130.64 0.75 127.34 0.75L127.34 0.75Q123.89 0.75 122.09-1.23 120.29-3.2 120.29-6.6L120.29-6.6 120.29-22 117.19-22 117.19-26.45 120.29-26.45 120.29-32.3 126.44-33.05 126.44-26.45 131.44-26.45 130.84-22 126.44-22 126.44-6.6Q126.44-4.2 128.49-4.2L128.49-4.2Q129.14-4.2 129.64-4.38 130.14-4.55 130.94-5L130.94-5ZM152.83-27.15Q157.53-27.15 160.78-24.05L160.78-24.05 158.43-20.7Q157.03-21.7 155.78-22.2 154.53-22.7 153.23-22.7L153.23-22.7Q151.78-22.7 150.96-21.93 150.13-21.15 150.13-19.8L150.13-19.8Q150.13-18.45 151.06-17.63 151.98-16.8 154.78-15.7L154.78-15.7Q158.23-14.35 159.88-12.5 161.53-10.65 161.53-7.55L161.53-7.55Q161.53-3.7 158.83-1.48 156.13 0.75 151.98 0.75L151.98 0.75Q149.28 0.75 147.01-0.23 144.73-1.2 143.03-2.95L143.03-2.95 146.03-6.25Q148.83-3.8 151.73-3.8L151.73-3.8Q153.38-3.8 154.33-4.67 155.28-5.55 155.28-7.1L155.28-7.1Q155.28-8.25 154.88-8.97 154.48-9.7 153.48-10.33 152.48-10.95 150.48-11.7L150.48-11.7Q147.03-13.05 145.56-14.85 144.08-16.65 144.08-19.45L144.08-19.45Q144.08-22.8 146.46-24.98 148.83-27.15 152.83-27.15L152.83-27.15ZM176.53-5L178.68-1.2Q176.23 0.75 172.93 0.75L172.93 0.75Q169.48 0.75 167.68-1.23 165.88-3.2 165.88-6.6L165.88-6.6 165.88-22 162.78-22 162.78-26.45 165.88-26.45 165.88-32.3 172.03-33.05 172.03-26.45 177.03-26.45 176.43-22 172.03-22 172.03-6.6Q172.03-4.2 174.08-4.2L174.08-4.2Q174.73-4.2 175.23-4.38 175.73-4.55 176.53-5L176.53-5ZM192.88-27.1Q194.03-27.1 194.93-26.75L194.93-26.75 193.93-20.85Q192.93-21.1 192.08-21.1L192.08-21.1Q190.18-21.1 189.08-19.45 187.98-17.8 187.38-14.55L187.38-14.55 187.38 0 181.23 0 181.23-26.45 186.58-26.45 187.03-21.85Q188.88-27.1 192.88-27.1L192.88-27.1ZM216.63-13.85Q216.63-13.4 216.48-11.3L216.48-11.3 202.83-11.3Q203.03-7.2 204.25-5.58 205.48-3.95 207.73-3.95L207.73-3.95Q209.28-3.95 210.53-4.48 211.78-5 213.23-6.15L213.23-6.15 215.78-2.65Q212.28 0.75 207.38 0.75L207.38 0.75Q202.18 0.75 199.4-2.85 196.63-6.45 196.63-13L196.63-13Q196.63-19.55 199.28-23.35 201.93-27.15 206.78-27.15L206.78-27.15Q211.43-27.15 214.03-23.78 216.63-20.4 216.63-13.85L216.63-13.85ZM210.63-15.3L210.63-15.65Q210.63-19.4 209.73-21.13 208.83-22.85 206.83-22.85L206.83-22.85Q204.98-22.85 204-21.18 203.03-19.5 202.83-15.3L202.83-15.3 210.63-15.3ZM228.27-27.15Q232.97-27.15 236.22-24.05L236.22-24.05 233.87-20.7Q232.47-21.7 231.22-22.2 229.97-22.7 228.67-22.7L228.67-22.7Q227.22-22.7 226.4-21.93 225.57-21.15 225.57-19.8L225.57-19.8Q225.57-18.45 226.5-17.63 227.42-16.8 230.22-15.7L230.22-15.7Q233.67-14.35 235.32-12.5 236.97-10.65 236.97-7.55L236.97-7.55Q236.97-3.7 234.27-1.48 231.57 0.75 227.42 0.75L227.42 0.75Q224.72 0.75 222.45-0.23 220.17-1.2 218.47-2.95L218.47-2.95 221.47-6.25Q224.27-3.8 227.17-3.8L227.17-3.8Q228.82-3.8 229.77-4.67 230.72-5.55 230.72-7.1L230.72-7.1Q230.72-8.25 230.32-8.97 229.92-9.7 228.92-10.33 227.92-10.95 225.92-11.7L225.92-11.7Q222.47-13.05 221-14.85 219.52-16.65 219.52-19.45L219.52-19.45Q219.52-22.8 221.9-24.98 224.27-27.15 228.27-27.15L228.27-27.15ZM248.17-27.15Q252.87-27.15 256.12-24.05L256.12-24.05 253.77-20.7Q252.37-21.7 251.12-22.2 249.87-22.7 248.57-22.7L248.57-22.7Q247.12-22.7 246.3-21.93 245.47-21.15 245.47-19.8L245.47-19.8Q245.47-18.45 246.4-17.63 247.32-16.8 250.12-15.7L250.12-15.7Q253.57-14.35 255.22-12.5 256.87-10.65 256.87-7.55L256.87-7.55Q256.87-3.7 254.17-1.48 251.47 0.75 247.32 0.75L247.32 0.75Q244.62 0.75 242.35-0.23 240.07-1.2 238.37-2.95L238.37-2.95 241.37-6.25Q244.17-3.8 247.07-3.8L247.07-3.8Q248.72-3.8 249.67-4.67 250.62-5.55 250.62-7.1L250.62-7.1Q250.62-8.25 250.22-8.97 249.82-9.7 248.82-10.33 247.82-10.95 245.82-11.7L245.82-11.7Q242.37-13.05 240.9-14.85 239.42-16.65 239.42-19.45L239.42-19.45Q239.42-22.8 241.8-24.98 244.17-27.15 248.17-27.15L248.17-27.15ZM266.32 0.75Q263.62 0.75 262.04-0.93 260.47-2.6 260.47-5.4L260.47-5.4 260.47-37.05 266.62-37.7 266.62-5.65Q266.62-5 266.92-4.6 267.22-4.2 267.82-4.2L267.82-4.2Q268.17-4.2 268.49-4.3 268.82-4.4 268.92-4.4L268.92-4.4 270.12-0.2Q268.42 0.75 266.32 0.75L266.32 0.75ZM292.02-13.85Q292.02-13.4 291.87-11.3L291.87-11.3 278.22-11.3Q278.42-7.2 279.64-5.58 280.87-3.95 283.12-3.95L283.12-3.95Q284.67-3.95 285.92-4.48 287.17-5 288.62-6.15L288.62-6.15 291.17-2.65Q287.67 0.75 282.77 0.75L282.77 0.75Q277.57 0.75 274.79-2.85 272.02-6.45 272.02-13L272.02-13Q272.02-19.55 274.67-23.35 277.32-27.15 282.17-27.15L282.17-27.15Q286.82-27.15 289.42-23.78 292.02-20.4 292.02-13.85L292.02-13.85ZM286.02-15.3L286.02-15.65Q286.02-19.4 285.12-21.13 284.22-22.85 282.22-22.85L282.22-22.85Q280.37-22.85 279.39-21.18 278.42-19.5 278.22-15.3L278.22-15.3 286.02-15.3ZM303.66-27.15Q308.36-27.15 311.61-24.05L311.61-24.05 309.26-20.7Q307.86-21.7 306.61-22.2 305.36-22.7 304.06-22.7L304.06-22.7Q302.61-22.7 301.79-21.93 300.96-21.15 300.96-19.8L300.96-19.8Q300.96-18.45 301.89-17.63 302.81-16.8 305.61-15.7L305.61-15.7Q309.06-14.35 310.71-12.5 312.36-10.65 312.36-7.55L312.36-7.55Q312.36-3.7 309.66-1.48 306.96 0.75 302.81 0.75L302.81 0.75Q300.11 0.75 297.84-0.23 295.56-1.2 293.86-2.95L293.86-2.95 296.86-6.25Q299.66-3.8 302.56-3.8L302.56-3.8Q304.21-3.8 305.16-4.67 306.11-5.55 306.11-7.1L306.11-7.1Q306.11-8.25 305.71-8.97 305.31-9.7 304.31-10.33 303.31-10.95 301.31-11.7L301.31-11.7Q297.86-13.05 296.39-14.85 294.91-16.65 294.91-19.45L294.91-19.45Q294.91-22.8 297.29-24.98 299.66-27.15 303.66-27.15L303.66-27.15ZM323.56-27.15Q328.26-27.15 331.51-24.05L331.51-24.05 329.16-20.7Q327.76-21.7 326.51-22.2 325.26-22.7 323.96-22.7L323.96-22.7Q322.51-22.7 321.69-21.93 320.86-21.15 320.86-19.8L320.86-19.8Q320.86-18.45 321.79-17.63 322.71-16.8 325.51-15.7L325.51-15.7Q328.96-14.35 330.61-12.5 332.26-10.65 332.26-7.55L332.26-7.55Q332.26-3.7 329.56-1.48 326.86 0.75 322.71 0.75L322.71 0.75Q320.01 0.75 317.74-0.23 315.46-1.2 313.76-2.95L313.76-2.95 316.76-6.25Q319.56-3.8 322.46-3.8L322.46-3.8Q324.11-3.8 325.06-4.67 326.01-5.55 326.01-7.1L326.01-7.1Q326.01-8.25 325.61-8.97 325.21-9.7 324.21-10.33 323.21-10.95 321.21-11.7L321.21-11.7Q317.76-13.05 316.29-14.85 314.81-16.65 314.81-19.45L314.81-19.45Q314.81-22.8 317.19-24.98 319.56-27.15 323.56-27.15L323.56-27.15ZM341.71 0.75Q339.01 0.75 337.43-0.93 335.86-2.6 335.86-5.4L335.86-5.4 335.86-37.05 342.01-37.7 342.01-5.65Q342.01-5 342.31-4.6 342.61-4.2 343.21-4.2L343.21-4.2Q343.56-4.2 343.88-4.3 344.21-4.4 344.31-4.4L344.31-4.4 345.51-0.2Q343.81 0.75 341.71 0.75L341.71 0.75ZM367.2-26.45L360.2 0.1Q358.9 4.9 356 7.65 353.1 10.4 348.25 10.85L348.25 10.85 347.56 6.5Q350.7 5.85 352.28 4.42 353.85 3 354.75 0L354.75 0 352.45 0 345.75-26.45 352-26.45 356.4-4.1 361.1-26.45 367.2-26.45Z" opacity="1" transform="matrix(1,0,0,1,0,0)" fill="#000000" class="slogan-text-1" data-fill-palette-color="secondary" id="text-1"></path></svg></g></svg></g></svg></g></svg></g></svg></g></svg></g></svg></g><path d="M212.473 80.14L212.473 18.797 2.866 18.797 2.866 228.403 212.473 228.403 212.473 167.06 208.372 167.06 208.372 224.303 6.966 224.303 6.966 22.897 208.372 22.897 208.372 80.14Z" fill="#000000" stroke="transparent" data-fill-palette-color="tertiary"></path></svg></g><defs></defs></svg><rect width="395.52" height="247.2" fill="none" stroke="none" visibility="hidden"></rect></g></svg></g></svg>